<svg viewBox="0 0 180 42" xmlns="http://www.w3.org/2000/svg" data-logo="logo">
        <g transform="translate(0, 1) rotate(0)" id="logogram" style="opacity: 1;"><path fill="#0070A8" d="M15 0L20.4545 5.33333L0 25.3333V14.6667L15 0Z"></path><path fill="#FFFFFF" d="M2.90827 28.177L15 40L30 25.3334V14.6667L20.4545 5.33337L0 25.3334L0.0041688 25.3375L20.4545 5.33337V20.6667L11.25 29.6667V20.1324L2.90827 28.177Z"></path></g>
        <g transform="translate(36, 7)" id="logotype" style="opacity: 1;"><path d="M15.42 23.84L15.42 23.84Q16.57 23.84 17.32 23.64Q18.08 23.45 18.53 23.12Q18.98 22.79 19.16 22.33Q19.34 21.88 19.34 21.31L19.34 21.31Q19.34 20.13 18.22 19.34Q17.09 18.55 14.37 17.64L14.37 17.64Q13.18 17.22 11.98 16.68Q10.80 16.13 9.85 15.31Q8.91 14.49 8.31 13.32Q7.71 12.14 7.71 10.46L7.71 10.46Q7.71 8.78 8.35 7.44Q8.97 6.09 10.13 5.14Q11.29 4.20 12.93 3.69Q14.58 3.18 16.64 3.18L16.64 3.18Q19.09 3.18 20.88 3.71Q22.66 4.23 23.82 4.86L23.82 4.86L22.24 9.17Q21.23 8.64 19.98 8.24Q18.74 7.84 16.99 7.84L16.99 7.84Q15.03 7.84 14.17 8.38Q13.32 8.92 13.32 10.04L13.32 10.04Q13.32 10.71 13.63 11.16Q13.95 11.62 14.52 11.99Q15.10 12.35 15.85 12.65Q16.61 12.95 17.52 13.26L17.52 13.26Q19.41 13.96 20.80 14.65Q22.21 15.33 23.13 16.24Q24.06 17.15 24.52 18.38Q24.97 19.60 24.97 21.35L24.97 21.35Q24.97 24.75 22.59 26.62Q20.21 28.49 15.42 28.49L15.42 28.49Q13.80 28.49 12.51 28.30Q11.21 28.11 10.22 27.82Q9.22 27.55 8.50 27.23Q7.79 26.91 7.29 26.63L7.29 26.63L8.84 22.29Q9.92 22.89 11.51 23.36Q13.11 23.84 15.42 23.84ZM34.04 9.59L34.04 28L28.82 28L28.82 9.59L34.04 9.59ZM34.53 4.27L34.53 4.27Q34.53 5.70 33.60 6.53Q32.67 7.35 31.41 7.35L31.41 7.35Q30.15 7.35 29.22 6.53Q28.30 5.70 28.30 4.27L28.30 4.27Q28.30 2.83 29.22 2.01Q30.15 1.19 31.41 1.19L31.41 1.19Q32.67 1.19 33.60 2.01Q34.53 2.83 34.53 4.27ZM47.02 24.04L46.28 28.35Q44.01 28.32 42.59 27.86Q41.17 27.41 40.35 26.58Q39.53 25.76 39.23 24.59Q38.94 23.41 38.94 21.95L38.94 21.95L38.94 1.68L44.15 0.84L44.15 20.89Q44.15 21.59 44.26 22.16Q44.36 22.71 44.66 23.10Q44.95 23.48 45.52 23.73Q46.08 23.98 47.02 24.04L47.02 24.04ZM58.96 28L54.62 28Q52.83 24.50 50.99 19.81Q49.16 15.12 47.51 9.59L47.51 9.59L53.04 9.59Q53.39 10.95 53.86 12.55Q54.34 14.14 54.84 15.77Q55.35 17.39 55.86 18.93Q56.37 20.48 56.86 21.73L56.86 21.73Q57.31 20.48 57.84 18.93Q58.36 17.39 58.87 15.77Q59.38 14.14 59.85 12.55Q60.32 10.95 60.67 9.59L60.67 9.59L66.06 9.59Q64.42 15.12 62.58 19.81Q60.74 24.50 58.96 28L58.96 28ZM67.50 18.93L67.50 18.93Q67.50 16.48 68.25 14.65Q69.00 12.81 70.23 11.58Q71.45 10.36 73.04 9.73Q74.64 9.10 76.32 9.10L76.32 9.10Q80.24 9.10 82.51 11.50Q84.79 13.89 84.79 18.55L84.79 18.55Q84.79 19.00 84.75 19.55Q84.72 20.09 84.68 20.51L84.68 20.51L72.85 20.51Q73.03 22.12 74.36 23.06Q75.69 24.01 77.93 24.01L77.93 24.01Q79.36 24.01 80.74 23.75Q82.13 23.48 83.00 23.10L83.00 23.10L83.70 27.34Q83.28 27.55 82.58 27.75Q81.88 27.96 81.02 28.12Q80.17 28.28 79.19 28.39Q78.21 28.49 77.23 28.49L77.23 28.49Q74.74 28.49 72.90 27.75Q71.07 27.02 69.86 25.74Q68.65 24.46 68.07 22.71Q67.50 20.96 67.50 18.93ZM72.85 16.94L79.75 16.94Q79.71 16.27 79.52 15.64Q79.33 15.01 78.92 14.52Q78.52 14.03 77.91 13.72Q77.30 13.40 76.39 13.40L76.39 13.40Q75.51 13.40 74.88 13.70Q74.25 14.00 73.83 14.49Q73.41 14.98 73.18 15.63Q72.96 16.27 72.85 16.94L72.85 16.94ZM100.78 9.90L99.91 14.21Q99.21 14.03 98.26 13.84Q97.32 13.65 96.23 13.65L96.23 13.65Q95.74 13.65 95.06 13.74Q94.38 13.82 94.03 13.93L94.03 13.93L94.03 28L88.81 28L88.81 10.57Q90.21 10.08 92.12 9.64Q94.03 9.20 96.37 9.20L96.37 9.20Q96.79 9.20 97.39 9.26Q97.98 9.31 98.58 9.40Q99.17 9.48 99.77 9.61Q100.36 9.73 100.78 9.90L100.78 9.90ZM121.82 28.49L121.82 28.49Q119.26 28.49 117.41 27.77Q115.55 27.05 114.34 25.78Q113.14 24.50 112.56 22.73Q111.98 20.96 111.98 18.83L111.98 18.83L111.98 3.74L117.44 3.74L117.44 18.38Q117.44 19.84 117.77 20.88Q118.11 21.91 118.68 22.56Q119.26 23.20 120.08 23.48Q120.91 23.77 121.89 23.77L121.89 23.77Q123.88 23.77 125.12 22.54Q126.37 21.31 126.37 18.38L126.37 18.38L126.37 3.74L131.83 3.74L131.83 18.83Q131.83 20.96 131.23 22.75Q130.64 24.54 129.41 25.81Q128.19 27.09 126.30 27.79Q124.41 28.49 121.82 28.49ZM137.08 28L137.08 3.74L142.53 3.74L142.53 28L137.08 28Z" fill="#ffffff"></path></g>
        
      </svg>